<svg width="91" height="91" viewBox="0 0 91 91" fill="none" xmlns="http://www.w3.org/2000/svg">
<mask id="mask0_635_16847" style="mask-type:alpha" maskUnits="userSpaceOnUse" x="0" y="0" width="91" height="91">
<circle cx="45.5" cy="45.5" r="45.5" fill="#D9D9D9"/>
</mask>
<g mask="url(#mask0_635_16847)">
<path d="M0 32.9332C0 21.4056 0 15.6417 2.25032 11.2387C4.22978 7.3657 7.3883 4.21684 11.2732 2.24344C15.6897 0 21.4712 0 33.0342 0H58.2449C69.808 0 75.5896 0 80.0058 2.24344C83.8908 4.21684 87.0493 7.3657 89.0288 11.2387C91.2791 15.6417 91.2791 21.4056 91.2791 32.9332V58.0668C91.2791 69.5945 91.2791 75.3584 89.0288 79.7612C87.0493 83.6342 83.8908 86.7831 80.0058 88.7565C75.5896 91 69.808 91 58.2449 91H33.0342C21.4712 91 15.6897 91 11.2732 88.7565C7.3883 86.7831 4.22978 83.6342 2.25032 79.7612C0 75.3584 0 69.5945 0 58.0668V32.9332Z" fill="#00005B"/>
<path d="M38.4328 57.0823H24.2881L21.4102 66.2411C21.3303 66.5807 21.0166 66.8212 20.6753 66.8047H13.5111C13.1026 66.8047 12.9597 66.5752 13.0825 66.116L25.329 30.2009C25.4516 29.8255 25.5739 29.4583 25.6965 28.9779C25.8567 28.1423 25.9387 27.2934 25.9414 26.4423C25.9064 26.1907 26.1241 25.9679 26.3699 26.0038H36.1062C36.3914 26.0038 36.5544 26.1082 36.5958 26.3168L50.496 66.1784C50.6182 66.5963 50.4957 66.805 50.1286 66.8047H42.1681C41.889 66.8362 41.6223 66.6454 41.5558 66.3662L38.4328 57.0823ZM26.4925 49.36H36.1674C34.5779 43.9448 32.7839 38.6012 31.33 33.1438C29.6824 38.8046 28.161 44.0547 26.4925 49.36Z" fill="#9999FF"/>
<path d="M60.8336 53.5455C61.3966 58.1959 65.3138 60.4131 69.6512 60.3185C72.0971 60.2707 74.711 59.8921 76.9965 58.9701C77.1999 58.804 77.3026 58.9077 77.3026 59.2834V65.2312C77.3219 65.5406 77.1921 65.8172 76.9352 65.9826C74.0945 67.2689 70.8339 67.657 67.7529 67.6076C58.5669 67.6076 52.2586 61.155 52.2612 51.7671C52.2371 42.8706 58.0264 35.365 67.0181 35.365C74.6402 35.1681 79.9171 41.2517 79.9383 48.8246C79.9383 50.2035 79.8611 51.5877 79.6935 52.9566C79.6609 53.2387 79.42 53.4578 79.1422 53.4578C73.0549 53.4578 66.9379 53.5455 60.8336 53.5455ZM60.8336 47.8418C64.2263 47.8418 67.6385 47.9614 71.0288 47.8106C71.5384 47.7586 71.9168 47.662 71.9168 47.1339C71.8461 44.3266 69.4696 42.0174 66.712 42.125C63.3803 41.919 61.2479 44.7231 60.8336 47.8418Z" fill="#9999FF"/>
</g>
</svg>
