<svg width="91" height="91" viewBox="0 0 91 91" fill="none" xmlns="http://www.w3.org/2000/svg">
<mask id="mask0_635_16856" style="mask-type:alpha" maskUnits="userSpaceOnUse" x="0" y="0" width="91" height="91">
<circle cx="45.5" cy="45.5" r="45.5" fill="#D9D9D9"/>
</mask>
<g mask="url(#mask0_635_16856)">
<path d="M78.6449 91H12.3551C5.55979 91 0 85.4402 0 78.6449V12.3551C0 5.55979 5.55979 0 12.3551 0H78.6449C85.4402 0 91 5.55979 91 12.3551V78.6449C91 85.4402 85.4402 91 78.6449 91Z" fill="#353535"/>
<path d="M35.9961 74.0108C41.247 74.0108 45.5 69.7578 45.5 64.5068V55.0029H35.9961C30.7452 55.0029 26.4922 59.2559 26.4922 64.5068C26.4922 69.7578 30.7452 74.0108 35.9961 74.0108Z" fill="#0ACF83"/>
<path d="M26.4922 45.499C26.4922 40.2481 30.7452 35.9951 35.9961 35.9951H45.5V55.003H35.9961C30.7452 55.003 26.4922 50.7499 26.4922 45.499Z" fill="#A259FF"/>
<path d="M26.4922 26.4912C26.4922 21.2403 30.7452 16.9873 35.9961 16.9873H45.5V35.9951H35.9961C30.7452 35.9951 26.4922 31.7421 26.4922 26.4912Z" fill="#F24E1E"/>
<path d="M45.5 16.9873H55.0039C60.2548 16.9873 64.5078 21.2403 64.5078 26.4912C64.5078 31.7421 60.2548 35.9951 55.0039 35.9951H45.5V16.9873Z" fill="#FF7262"/>
<path d="M64.5078 45.499C64.5078 50.7499 60.2548 55.003 55.0039 55.003C49.753 55.003 45.5 50.7499 45.5 45.499C45.5 40.2481 49.753 35.9951 55.0039 35.9951C60.2548 35.9951 64.5078 40.2481 64.5078 45.499Z" fill="#1ABCFE"/>
</g>
</svg>
