<svg width="91" height="91" viewBox="0 0 91 91" fill="none" xmlns="http://www.w3.org/2000/svg">
<mask id="mask0_635_16842" style="mask-type:alpha" maskUnits="userSpaceOnUse" x="0" y="0" width="91" height="91">
<circle cx="45.5" cy="45.5" r="45.5" fill="#D9D9D9"/>
</mask>
<g mask="url(#mask0_635_16842)">
<path d="M0 32.9332C0 21.4056 0 15.6417 2.24344 11.2387C4.21684 7.3657 7.3657 4.21684 11.2387 2.24344C15.6417 0 21.4056 0 32.9332 0H58.0668C69.5945 0 75.3584 0 79.7612 2.24344C83.6342 4.21684 86.7831 7.3657 88.7565 11.2387C91 15.6417 91 21.4056 91 32.9332V58.0668C91 69.5945 91 75.3584 88.7565 79.7612C86.7831 83.6342 83.6342 86.7831 79.7612 88.7565C75.3584 91 69.5945 91 58.0668 91H32.9332C21.4056 91 15.6417 91 11.2387 88.7565C7.3657 86.7831 4.21684 83.6342 2.24344 79.7612C0 75.3584 0 69.5945 0 58.0668V32.9332Z" fill="#330000"/>
<path d="M44.0979 57.1883H29.9965L27.1274 66.3296C27.0478 66.6692 26.7351 66.9097 26.3949 66.8928H19.2525C18.8451 66.8928 18.7027 66.6633 18.8252 66.2041L31.0342 30.1402C31.1564 29.7645 31.2786 29.3368 31.4005 28.8567C31.5604 28.0212 31.642 27.1723 31.6449 26.3211C31.6098 26.0695 31.8308 25.8474 32.072 25.8826H41.7784C42.0628 25.8826 42.2253 25.987 42.2666 26.1956L56.1242 66.2668C56.2461 66.6845 56.1242 66.8931 55.758 66.8928H47.8218C47.5436 66.9246 47.2777 66.7339 47.2114 66.4547L44.0979 57.1883ZM32.1942 49.2992H41.8395C40.2548 43.8841 38.4663 38.5401 37.0168 33.083C35.4529 38.5495 33.7467 43.9939 32.1942 49.2992Z" fill="#FF9A00"/>
<path d="M64.3646 32.5189C63.7419 32.5445 63.1211 32.435 62.5423 32.1978C61.9638 31.9605 61.4405 31.6004 61.007 31.1415C60.5747 30.6625 60.2387 30.1009 60.0187 29.4882C59.7986 28.8759 59.6989 28.225 59.7249 27.5727C59.7028 26.9269 59.8136 26.2837 60.0502 25.6849C60.2871 25.0861 60.6443 24.5453 61.0986 24.0977C61.5484 23.6548 62.0795 23.3077 62.6612 23.0767C63.2427 22.8456 63.8631 22.7352 64.4864 22.7516C65.9519 22.7516 67.1014 23.2003 67.9357 24.0977C68.3569 24.5641 68.6841 25.1111 68.899 25.7073C69.1135 26.3036 69.2116 26.9376 69.1869 27.5727C69.2126 28.2272 69.1096 28.8808 68.884 29.4938C68.6588 30.1067 68.3153 30.667 67.8746 31.1415C67.414 31.6072 66.8641 31.9699 66.2603 32.2072C65.6561 32.4441 65.0107 32.5504 64.3646 32.5189ZM60.1522 66.2662V36.3383C60.1522 35.9626 60.3144 35.7747 60.6407 35.7747H68.1495C68.4745 35.7747 68.6373 35.9626 68.6377 36.3383V66.2662C68.6377 66.6842 68.4748 66.8928 68.1495 66.8925H60.7018C60.3355 66.8925 60.1522 66.6838 60.1522 66.2662Z" fill="#FF9A00"/>
</g>
</svg>
